<svg xmlns="http://www.w3.org/2000/svg" width="360" height="560" viewBox="0 0 360 560">
  <!-- RISA (artKey RYO) — evolution: hard 【鋼鉄ハードロック】 / コア層でS評価 -->

    <defs><radialGradient id="hardA" cx="50%" cy="52%" r="62%">
      <stop offset="0%" stop-color="#ffb03a" stop-opacity="0.5"/>
      <stop offset="70%" stop-color="#b5400f" stop-opacity="0.35"/>
      <stop offset="100%" stop-color="#b5400f" stop-opacity="0"/>
    </radialGradient></defs>
    <rect width="360" height="560" fill="url(#hardA)"/>
    <g fill="#ff7a1c" opacity="0.9">
      <path d="M60 470 q-8 -30 8 -50 q4 22 16 28 q-6 14 -24 22 z"/>
      <path d="M304 460 q10 -34 -6 -56 q-4 24 -16 30 q6 14 22 26 z"/>
    </g>
    <circle cx="64" cy="300" r="3" fill="#ffd257"/><circle cx="300" cy="280" r="3.5" fill="#ffd257"/><circle cx="80" cy="120" r="2.5" fill="#ffd257"/><circle cx="292" cy="140" r="3" fill="#ffd257"/><circle cx="70" cy="430" r="3" fill="#ffd257"/><circle cx="300" cy="430" r="3" fill="#ffd257"/><circle cx="120" cy="70" r="2.5" fill="#ffd257"/><circle cx="262" cy="70" r="2.5" fill="#ffd257"/>
  <g stroke="#1a1320" stroke-width="3" stroke-linejoin="round">
    <path d="M250 430 Q322 430 320 356 Q318 322 296 322 Q312 336 306 360 Q300 396 250 402 Z" fill="#d98a26"/>
    <path d="M300 316 q22 -6 26 18 q4 24 -18 30 q14 -18 2 -34 q-6 -10 -10 -14 z" fill="#f0a63a"/>
  </g>
  <g stroke="#1a1320" stroke-width="3" stroke-linejoin="round">
    <!-- ears -->
    <path d="M96 118 q-16 -54 26 -60 q30 -2 30 34 z" fill="#f0a63a"/>
    <path d="M118 96 q-6 -26 16 -30 q14 0 12 20 z" fill="#caa06a" stroke="none"/>
    <path d="M264 118 q16 -54 -26 -60 q-30 -2 -30 34 z" fill="#f0a63a"/>
    <path d="M242 96 q6 -26 -16 -30 q-14 0 -12 20 z" fill="#caa06a" stroke="none"/>
    <!-- mane blob -->
    <path d="M84 190 Q68 92 132 74 Q150 44 180 58 Q210 44 228 74 Q292 92 276 190
             Q300 248 270 292 L256 250 L246 292 L236 246 L224 292 L214 248 L202 292
             L192 246 L180 292 L168 246 L158 292 L146 248 L136 292 L126 246 L116 292
             L104 250 L90 292 Q60 248 84 190 Z" fill="#f0a63a"/>
    <!-- inner mane shading -->
    <path d="M110 176 Q104 250 118 288 L128 250 Q120 210 128 176 Z" fill="#d98a26" stroke="none" opacity="0.55"/>
    <path d="M250 176 Q256 250 242 288 L232 250 Q240 210 232 176 Z" fill="#d98a26" stroke="none" opacity="0.55"/>
    <!-- signature pink streak (right side) -->
    <path d="M236 120 Q262 150 250 250 L228 250 Q236 160 216 128 Z" fill="#ff4f8b" stroke="none"/>
  </g>
  <g stroke="#1a1320" stroke-width="3" stroke-linejoin="round">
    
  <path d="M150 396 L142 500 L172 500 L178 402 Z" fill="#ffe0c0"/>
  <path d="M212 396 L200 402 L192 500 L222 500 L226 396 Z" fill="#ffe0c0"/>
    <!-- chunky boots -->
    <path d="M138 500 L136 530 L178 530 L176 500 Z" fill="#241a12"/>
    <path d="M190 500 L190 530 L228 530 L226 500 Z" fill="#241a12"/>
    <rect x="136" y="500" width="42" height="7" fill="#3a2a1c"/>
    <rect x="190" y="500" width="38" height="7" fill="#3a2a1c"/>
    <!-- denim shorts -->
    <path d="M142 386 Q181 376 220 386 L224 424 Q181 436 138 424 Z" fill="#2f4a70"/>
    <line x1="181" y1="392" x2="181" y2="428" stroke="#1e3350" stroke-width="2"/>
    <!-- band tee -->
    <path d="M136 250 Q181 238 226 250 L232 392 L130 392 Z" fill="#1a1620"/>
    <path d="M164 288 h34 v6 h-34 z M170 300 l22 0 -6 14 -10 0 z" fill="#c62438"/>
    <!-- bullet belt -->
    <rect x="128" y="384" width="106" height="12" fill="#2b2620"/>
    <g fill="#d9b23a"><rect x="134" y="386" width="6" height="8" rx="2"/><rect x="148" y="386" width="6" height="8" rx="2"/><rect x="162" y="386" width="6" height="8" rx="2"/><rect x="176" y="386" width="6" height="8" rx="2"/><rect x="190" y="386" width="6" height="8" rx="2"/><rect x="204" y="386" width="6" height="8" rx="2"/><rect x="218" y="386" width="6" height="8" rx="2"/></g>
    <!-- open leather jacket (front panels) -->
    <path d="M120 250 L106 396 L148 396 L152 262 Z" fill="#14121a"/>
    <path d="M242 250 L256 396 L214 396 L210 262 Z" fill="#14121a"/>
    <!-- small silver studs on collar/shoulders (classic, not brutal) -->
    <g fill="#c7ccd6"><circle cx="124" cy="262" r="3"/><circle cx="130" cy="278" r="3"/><circle cx="238" cy="262" r="3"/><circle cx="232" cy="278" r="3"/></g>
    <!-- jacket sleeves + studded wristbands -->
    <path d="M124 256 L100 350 L124 360 L148 272 Z" fill="#14121a"/>
    <path d="M238 256 L262 350 L238 360 L214 272 Z" fill="#14121a"/>
    <rect x="98" y="346" width="26" height="12" fill="#3a3630"/>
    <rect x="238" y="346" width="26" height="12" fill="#3a3630"/>
    <g fill="#c7ccd6"><circle cx="104" cy="352" r="2"/><circle cx="112" cy="352" r="2"/><circle cx="118" cy="352" r="2"/><circle cx="244" cy="352" r="2"/><circle cx="252" cy="352" r="2"/><circle cx="258" cy="352" r="2"/></g>
    <circle cx="110" cy="366" r="13" fill="#ffe0c0"/>
    <circle cx="252" cy="366" r="13" fill="#ffe0c0"/>
  </g>
  <g stroke="#1a1320" stroke-width="3" stroke-linejoin="round">
    <rect x="166" y="222" width="30" height="30" rx="8" fill="#f4c79a"/>
    <circle cx="181" cy="168" r="72" fill="#ffe0c0"/>
  </g>
  
  <g stroke="none">
    <!-- eyes -->
    <ellipse cx="153" cy="176" rx="12" ry="16" fill="#fff"/>
    <ellipse cx="209" cy="176" rx="12" ry="16" fill="#fff"/>
    <circle cx="154" cy="178" r="9" fill="#c9781f"/>
    <circle cx="210" cy="178" r="9" fill="#c9781f"/>
    <circle cx="151" cy="174" r="3" fill="#fff"/>
    <circle cx="207" cy="174" r="3" fill="#fff"/>
    <!-- brows + nose + confident grin -->
    <path d="M140 158 Q154 150 168 158" stroke="#1a1320" stroke-width="3" fill="none"/>
    <path d="M194 158 Q208 150 222 158" stroke="#1a1320" stroke-width="3" fill="none"/>
    <path d="M176 194 L186 194 L181 201 Z" fill="#f4c79a"/>
    <path d="M162 208 Q181 224 200 208" stroke="#1a1320" stroke-width="3" fill="none"/>
  </g>
  <!-- front mane bangs -->
  <g stroke="#1a1320" stroke-width="3" stroke-linejoin="round">
    <path d="M112 150 Q120 96 181 92 Q242 96 250 150
             L232 128 L224 156 L206 122 L196 154 L181 118 L166 154 L156 122 L138 156 L130 128 Z"
          fill="#f0a63a"/>
    <path d="M226 112 Q246 140 236 172 L220 150 Q230 130 214 116 Z" fill="#ff4f8b" stroke="none"/>
  </g>
  <g stroke="#1a1320" stroke-width="3" stroke-linejoin="round">
    <line x1="118" y1="300" x2="150" y2="238" stroke="#0d0b10" stroke-width="9"/>
    <circle cx="154" cy="230" r="16" fill="#8a8f9a"/>
    <circle cx="118" cy="300" r="15" fill="#ffe0c0"/>
  </g>
</svg>
