<svg xmlns="http://www.w3.org/2000/svg" width="360" height="560" viewBox="0 0 360 560">
  <!-- RISA (artKey RYO) — evolution: death 【戦鬼デスメタル】 / 玄人層でS評価 -->

    <defs><radialGradient id="deathA" cx="50%" cy="56%" r="66%">
      <stop offset="0%" stop-color="#c01522" stop-opacity="0.45"/>
      <stop offset="60%" stop-color="#1a0d10" stop-opacity="0.6"/>
      <stop offset="100%" stop-color="#0a0509" stop-opacity="0"/>
    </radialGradient></defs>
    <rect width="360" height="560" fill="url(#deathA)"/>
    <g fill="#241820" opacity="0.7">
      <ellipse cx="66" cy="360" rx="48" ry="74"/><ellipse cx="300" cy="330" rx="44" ry="70"/>
      <ellipse cx="58" cy="170" rx="34" ry="52"/><ellipse cx="308" cy="190" rx="30" ry="48"/>
    </g>
    <g fill="#12090c" opacity="0.9"><path d="M30 540 l14 -46 l14 46 z" transform="rotate(-16 44 540)"/><path d="M64 540 l14 -46 l14 46 z" transform="rotate(-10 78 540)"/><path d="M300 540 l14 -46 l14 46 z" transform="rotate(12 314 540)"/><path d="M332 540 l14 -46 l14 46 z" transform="rotate(18 346 540)"/><path d="M16 540 l14 -46 l14 46 z" transform="rotate(-22 30 540)"/></g>
    <circle cx="64" cy="300" r="3" fill="#ff3b26"/><circle cx="300" cy="280" r="3.5" fill="#ff3b26"/><circle cx="80" cy="120" r="2.5" fill="#ff3b26"/><circle cx="292" cy="140" r="3" fill="#ff3b26"/><circle cx="300" cy="430" r="3.5" fill="#ff3b26"/><circle cx="72" cy="440" r="3" fill="#ff3b26"/>
  <g stroke="#1a1320" stroke-width="3" stroke-linejoin="round">
    <path d="M250 430 Q322 430 320 356 Q318 322 296 322 Q312 336 306 360 Q300 396 250 402 Z" fill="#d98a26"/>
    <path d="M300 316 q22 -6 26 18 q4 24 -18 30 q14 -18 2 -34 q-6 -10 -10 -14 z" fill="#7a4a12"/>
  </g>
  <g stroke="#1a1320" stroke-width="3" stroke-linejoin="round">
    <!-- ears -->
    <path d="M96 118 q-16 -54 26 -60 q30 -2 30 34 z" fill="#b9781e"/>
    <path d="M118 96 q-6 -26 16 -30 q14 0 12 20 z" fill="#caa06a" stroke="none"/>
    <path d="M264 118 q16 -54 -26 -60 q-30 -2 -30 34 z" fill="#b9781e"/>
    <path d="M242 96 q6 -26 -16 -30 q-14 0 -12 20 z" fill="#caa06a" stroke="none"/>
    <!-- mane blob -->
    <path d="M84 190 Q68 92 132 74 Q150 44 180 58 Q210 44 228 74 Q292 92 276 190
             Q300 248 270 292 L256 250 L246 292 L236 246 L224 292 L214 248 L202 292
             L192 246 L180 292 L168 246 L158 292 L146 248 L136 292 L126 246 L116 292
             L104 250 L90 292 Q60 248 84 190 Z" fill="#b9781e"/>
    <!-- inner mane shading -->
    <path d="M110 176 Q104 250 118 288 L128 250 Q120 210 128 176 Z" fill="#7f5210" stroke="none" opacity="0.55"/>
    <path d="M250 176 Q256 250 242 288 L232 250 Q240 210 232 176 Z" fill="#7f5210" stroke="none" opacity="0.55"/>
    <!-- signature pink streak (right side) -->
    <path d="M236 120 Q262 150 250 250 L228 250 Q236 160 216 128 Z" fill="#ff4f8b" stroke="none"/>
  </g>
  <g stroke="#1a1320" stroke-width="3" stroke-linejoin="round">
    <path d="M150 396 L142 500 L172 500 L178 402 Z" fill="#0f0d13"/>
    <path d="M212 396 L200 402 L192 500 L222 500 L226 396 Z" fill="#0f0d13"/>
    <!-- spiked steel boots -->
    <path d="M136 500 L134 530 L178 530 L176 500 Z" fill="#08070a"/>
    <path d="M190 500 L190 530 L230 530 L226 500 Z" fill="#08070a"/>
    <g fill="#c7ccd6"><path d="M140 500 l5 -9 l5 9 z"/><path d="M152 500 l5 -9 l5 9 z"/><path d="M164 500 l5 -9 l5 9 z"/><path d="M194 500 l5 -9 l5 9 z"/><path d="M206 500 l5 -9 l5 9 z"/><path d="M218 500 l5 -9 l5 9 z"/></g>
    <!-- tattered war garb -->
    <path d="M130 250 Q181 236 232 250 L244 392 L236 402 L224 388 L210 402 L196 388 L181 402 L166 388 L152 402 L138 388 L130 400 L118 392 Z" fill="#141017"/>
    <path d="M156 250 Q181 244 206 250 L206 360 L181 376 L156 360 Z" fill="#3a0a10"/>
    <!-- bullet belt + chains -->
    <rect x="118" y="376" width="126" height="12" fill="#241f1a"/>
    <g fill="#d9b23a"><rect x="124" y="378" width="6" height="8" rx="2"/><rect x="137" y="378" width="6" height="8" rx="2"/><rect x="150" y="378" width="6" height="8" rx="2"/><rect x="163" y="378" width="6" height="8" rx="2"/><rect x="176" y="378" width="6" height="8" rx="2"/><rect x="189" y="378" width="6" height="8" rx="2"/><rect x="202" y="378" width="6" height="8" rx="2"/><rect x="215" y="378" width="6" height="8" rx="2"/><rect x="228" y="378" width="6" height="8" rx="2"/></g>
    <path d="M130 306 Q181 336 232 306" stroke="#8a9099" stroke-width="4" fill="none" stroke-dasharray="3 3"/>
    <!-- black armor with HEAVY spiked shoulder pauldrons -->
    <path d="M116 250 L88 372 L126 372 L140 266 Z" fill="#0e0c12"/>
    <path d="M246 250 L274 372 L236 372 L222 266 Z" fill="#0e0c12"/>
    <g fill="#c7ccd6">
      <path d="M104 246 l12 -18 l12 18 z"/><path d="M86 268 l12 -18 l12 18 z"/><path d="M92 300 l12 -16 l12 16 z"/>
      <path d="M234 246 l12 -18 l12 18 z"/><path d="M258 268 l12 -18 l12 18 z"/><path d="M246 300 l12 -16 l12 16 z"/>
    </g>
    <!-- spiked gauntlets -->
    <circle cx="104" cy="366" r="15" fill="#0e0c12"/>
    <circle cx="258" cy="366" r="15" fill="#0e0c12"/>
    <g fill="#c7ccd6"><path d="M92 360 l-4 -8 l8 2 z"/><path d="M100 352 l-4 -8 l8 2 z"/><path d="M110 354 l-4 -8 l8 2 z"/><path d="M252 354 l-4 -8 l8 2 z"/><path d="M262 352 l-4 -8 l8 2 z"/><path d="M270 360 l-4 -8 l8 2 z"/></g>
    <!-- spiked collar -->
    <path d="M154 236 Q181 249 208 236 L208 245 Q181 258 154 245 Z" fill="#08070a"/>
    <g fill="#c7ccd6"><path d="M160 240 l3 -9 l3 9 z"/><path d="M169 240 l3 -9 l3 9 z"/><path d="M178 240 l3 -9 l3 9 z"/><path d="M187 240 l3 -9 l3 9 z"/><path d="M196 240 l3 -9 l3 9 z"/><path d="M205 240 l3 -9 l3 9 z"/></g>
  </g>
  <g stroke="#1a1320" stroke-width="3" stroke-linejoin="round">
    <rect x="166" y="222" width="30" height="30" rx="8" fill="#f4c79a"/>
    <circle cx="181" cy="168" r="72" fill="#ffe0c0"/>
  </g>
  
  <g stroke="none">
    <circle cx="181" cy="168" r="69" fill="#eceaee"/>
    <ellipse cx="153" cy="176" rx="21" ry="27" fill="#0c0910"/>
    <ellipse cx="209" cy="176" rx="21" ry="27" fill="#0c0910"/>
    <path d="M175 108 L170 236 L192 236 L187 108 Z" fill="#0c0910" opacity="0.5"/>
  </g>
  <g stroke="none">
    <!-- eyes -->
    <ellipse cx="153" cy="176" rx="12" ry="16" fill="#fff"/>
    <ellipse cx="209" cy="176" rx="12" ry="16" fill="#fff"/>
    <circle cx="154" cy="178" r="9" fill="#c9781f"/>
    <circle cx="210" cy="178" r="9" fill="#c9781f"/>
    <circle cx="151" cy="174" r="3" fill="#fff"/>
    <circle cx="207" cy="174" r="3" fill="#fff"/>
    <!-- brows + nose + confident grin -->
    <path d="M140 158 Q154 150 168 158" stroke="#1a1320" stroke-width="3" fill="none"/>
    <path d="M194 158 Q208 150 222 158" stroke="#1a1320" stroke-width="3" fill="none"/>
    <path d="M176 194 L186 194 L181 201 Z" fill="#f4c79a"/>
    <path d="M162 208 Q181 224 200 208" stroke="#1a1320" stroke-width="3" fill="none"/>
  </g>
  <!-- front mane bangs -->
  <g stroke="#1a1320" stroke-width="3" stroke-linejoin="round">
    <path d="M112 150 Q120 96 181 92 Q242 96 250 150
             L232 128 L224 156 L206 122 L196 154 L181 118 L166 154 L156 122 L138 156 L130 128 Z"
          fill="#f0a63a"/>
    <path d="M226 112 Q246 140 236 172 L220 150 Q230 130 214 116 Z" fill="#ff4f8b" stroke="none"/>
  </g>
  <g stroke="#1a1320" stroke-width="3" stroke-linejoin="round">
    <line x1="118" y1="300" x2="150" y2="238" stroke="#0a0508" stroke-width="9"/>
    <circle cx="154" cy="230" r="16" fill="#8a9099"/>
    <circle cx="118" cy="300" r="15" fill="#ffe0c0"/>
  </g>
</svg>
